<?xml version="1.0" encoding="UTF-8"?>
<!-- Generator: Adobe Illustrator 16.0.0, SVG Export Plug-In . SVG Version: 6.00 Build 0)  -->
<!DOCTYPE svg PUBLIC "-//W3C//DTD SVG 1.1//EN" "http://www.w3.org/Graphics/SVG/1.1/DTD/svg11.dtd">
<svg version="1.1" id="Layer_1" xmlns="http://www.w3.org/2000/svg" xmlns:xlink="http://www.w3.org/1999/xlink" x="0px" y="0px" width="54.861px" height="53.422px" viewBox="0 0 54.861 53.422" enable-background="new 0 0 54.861 53.422" xml:space="preserve">

<path fill="#E3626E" d="M29.545,13.485c-2.149-2.456-3.995,0-3.995,0L7.462,30.868V45.2c0,4.521,3.7,8.222,8.223,8.222h23.491   c4.522,0,8.224-3.7,8.224-8.222V30.868C47.4,30.868,32.834,17.243,29.545,13.485 M36.504,40.971c0,1.938-1.586,3.524-3.523,3.524   H21.88c-1.937,0-3.523-1.586-3.523-3.524v-6.578c0-1.938,1.586-3.524,3.523-3.524h11.101c1.938,0,3.523,1.586,3.523,3.524V40.971z"/>

<path fill="#E3626E" d="M54.035,25.436L29.536,0.937c-0.031-0.036-0.057-0.077-0.091-0.112C28.891,0.271,28.16-0.003,27.431,0   c-0.729-0.003-1.46,0.271-2.014,0.825c-0.034,0.035-0.059,0.076-0.091,0.112L0.827,25.436c-1.102,1.102-1.102,2.905,0,4.006   s2.905,1.102,4.006,0L27.431,6.845l22.598,22.597c1.101,1.102,2.903,1.102,4.006,0S55.137,26.538,54.035,25.436"/>

</svg>