<?xml version="1.0" encoding="UTF-8"?>
<!-- Generator: Adobe Illustrator 16.0.0, SVG Export Plug-In . SVG Version: 6.00 Build 0)  -->
<!DOCTYPE svg PUBLIC "-//W3C//DTD SVG 1.1//EN" "http://www.w3.org/Graphics/SVG/1.1/DTD/svg11.dtd">
<svg version="1.1" id="Layer_1" xmlns="http://www.w3.org/2000/svg" xmlns:xlink="http://www.w3.org/1999/xlink" x="0px" y="0px" width="18px" height="18px" viewBox="0 0 18 18" enable-background="new 0 0 18 18" xml:space="preserve">
<g>
	<defs>
		<rect id="SVGID_1_" width="18" height="18"/>
	</defs>
	<clipPath id="SVGID_2_">
		<use xlink:href="#SVGID_1_" overflow="visible"/>
	</clipPath>
	<path clip-path="url(#SVGID_2_)" fill="#70CDDC" d="M9,18c4.957,0,9-4.043,9-9s-4.043-9-9-9S0,4.043,0,9S4.043,18,9,18"/>
	<path clip-path="url(#SVGID_2_)" fill="#0CAAC5" d="M9.294,17.995c4.503-0.146,8.188-3.626,8.655-8.044l-7.208-6.71l-0.63,2.92   L8.504,7.299l0.832,1.513l-4.46,5.679L9.294,17.995z"/>
	<path clip-path="url(#SVGID_2_)" fill="#FFFFFF" d="M13.294,11.547l0.29,2.44c0.057,0.481-0.398,0.883-0.885,0.883H5.301   c-0.487,0-0.942-0.401-0.885-0.883l0.289-2.438C4.955,9.835,6.783,8.516,9,8.516c1.146,0,2.188,0.353,2.961,0.928   C12.682,9.979,13.17,10.708,13.294,11.547 M9,2.287c1.43,0,2.589,1.156,2.589,2.583c0,1.427-1.159,2.584-2.589,2.584   c-1.43,0-2.589-1.157-2.589-2.584C6.411,3.443,7.57,2.287,9,2.287"/>
</g>
</svg>