<?xml version="1.0" encoding="UTF-8"?>
<!-- Generator: Adobe Illustrator 16.0.0, SVG Export Plug-In . SVG Version: 6.00 Build 0)  -->
<!DOCTYPE svg PUBLIC "-//W3C//DTD SVG 1.1//EN" "http://www.w3.org/Graphics/SVG/1.1/DTD/svg11.dtd">
<svg version="1.1" id="Layer_1" xmlns="http://www.w3.org/2000/svg" xmlns:xlink="http://www.w3.org/1999/xlink" x="0px" y="0px" width="106.597px" height="54.103px" viewBox="0 0 106.597 54.103" enable-background="new 0 0 106.597 54.103" xml:space="preserve">
<path fill="#2E2A26" d="M2.509,1.151c0-0.398,0.357-0.754,0.755-0.754H8.03c0.397,0,0.754,0.356,0.754,0.754v26.277  c0,0.398-0.357,0.755-0.754,0.755H3.264c-0.398,0-0.755-0.356-0.755-0.755V1.151z"/>
<path fill="#2E2A26" d="M12.809,24.412l1.867-3.295c0.318-0.516,1.072-0.436,1.35-0.238c0.159,0.079,3.019,2.183,5.64,2.183  c1.589,0,2.741-0.992,2.741-2.381c0-1.667-1.39-2.937-4.091-4.01c-3.416-1.349-7.705-4.009-7.705-8.771  c0-3.93,3.058-7.899,9.175-7.899c4.13,0,7.308,2.102,8.499,2.976c0.477,0.278,0.398,0.993,0.239,1.27l-2.026,3.058  c-0.278,0.436-0.993,0.793-1.351,0.515c-0.357-0.198-3.256-2.382-5.679-2.382c-1.43,0-2.502,0.954-2.502,2.026  c0,1.468,1.191,2.58,4.329,3.85c3.098,1.23,8.023,3.652,8.023,9.05c0,4.089-3.535,8.216-9.374,8.216  c-5.163,0-8.023-2.142-8.936-3.056C12.611,25.127,12.491,24.967,12.809,24.412"/>
<path fill="#2E2A26" d="M72.884,0c3.972,0,6.91,1.23,9.611,3.691c0.357,0.318,0.357,0.793,0.039,1.112l-3.098,3.215  c-0.278,0.277-0.715,0.277-0.992,0c-1.471-1.31-3.416-2.024-5.363-2.024c-4.488,0-7.783,3.73-7.783,8.177  c0,4.405,3.336,8.058,7.823,8.058c1.866,0,3.892-0.675,5.323-1.905c0.277-0.238,0.794-0.238,1.031,0.039l3.099,3.294  c0.278,0.279,0.238,0.795-0.04,1.072c-2.699,2.62-6.117,3.851-9.65,3.851c-7.944,0-14.34-6.312-14.34-14.25  C58.544,6.391,64.94,0,72.884,0"/>
<path fill="#2E2A26" d="M96.574,0c3.973,0,6.911,1.23,9.611,3.691c0.358,0.318,0.358,0.793,0.039,1.112l-3.097,3.215  c-0.278,0.277-0.716,0.277-0.993,0c-1.47-1.31-3.414-2.024-5.363-2.024c-4.487,0-7.783,3.73-7.783,8.177  c0,4.405,3.336,8.058,7.824,8.058c1.867,0,3.893-0.675,5.322-1.905c0.277-0.238,0.795-0.238,1.033,0.039l3.1,3.294  c0.276,0.279,0.238,0.795-0.043,1.072c-2.699,2.62-6.114,3.851-9.65,3.851c-7.943,0-14.339-6.312-14.339-14.25  C82.235,6.391,88.63,0,96.574,0"/>
<path fill="#ED2E38" d="M45.816,0.387l-5.841-0.002h-5.895c-0.397,0-0.716,0.357-0.716,0.755v10.029  c-0.002,0.021-0.006,0.042-0.006,0.063V30.61c0,0.398,0.318,0.756,0.755,0.756h0.06c0.345,0,0.604-0.213,0.858-0.756l4.521-8.377  h4.246l2.067,0.002c5.994,0,10.957-4.908,10.957-10.996C56.822,5.297,51.859,0.387,45.816,0.387"/>
<path fill="#393739" d="M18.172,34.397c0-0.314,0.315-0.629,0.629-0.629h2.318c0.344,0,0.63,0.314,0.63,0.629v7.008  c0.658-0.572,1.803-1.117,3.377-1.117c4.207,0,5.352,2.918,5.352,6.236v6.635c0,0.344-0.315,0.629-0.63,0.629h-2.319  c-0.342,0-0.628-0.285-0.628-0.629v-6.664c0-1.83-0.831-2.945-2.405-2.945c-1.545,0-2.403,0.973-2.747,2.316v7.293  c0,0.373-0.172,0.629-0.687,0.629h-2.261c-0.314,0-0.629-0.285-0.629-0.629V34.397z"/>
<path fill="#393739" d="M40.456,34.397c0-0.314,0.314-0.629,0.629-0.629h2.318c0.315,0,0.63,0.314,0.63,0.629v18.762  c0,0.344-0.315,0.629-0.63,0.629h-2.318c-0.315,0-0.629-0.285-0.629-0.629V34.397z"/>
<path fill="#393739" d="M53.367,40.289c1.316,0,2.574,0.315,3.176,0.543v-6.435c0-0.313,0.314-0.629,0.63-0.629h2.317  c0.344,0,0.63,0.315,0.63,0.629v18.762c0,0.344-0.286,0.63-0.63,0.63h-1.059c-0.314,0-0.515-0.258-0.629-0.63l-0.344-1.029  c0,0-1.518,1.973-4.321,1.973c-3.606,0-6.325-2.916-6.325-6.92C46.813,43.321,49.417,40.289,53.367,40.289 M56.542,44.293  c0,0-1.088-0.744-2.748-0.744c-2.175,0-3.291,1.775-3.291,3.634s1.06,3.66,3.12,3.66c1.717,0,2.633-1.087,2.919-1.83V44.293z"/>
<path fill="#393739" d="M64.244,34.397c0-0.314,0.314-0.629,0.629-0.629h2.318c0.314,0,0.631,0.314,0.631,0.629v18.762  c0,0.344-0.316,0.629-0.631,0.629h-2.318c-0.314,0-0.629-0.285-0.629-0.629V34.397z"/>
<path fill="#393739" d="M71.204,36.028c0-1.26,0.974-2.261,2.261-2.261s2.289,1.001,2.289,2.261c0,1.258-1.002,2.287-2.289,2.287  S71.204,37.286,71.204,36.028 M71.718,41.204c0-0.373,0.315-0.629,0.631-0.629h2.316c0.315,0,0.631,0.256,0.631,0.629v11.955  c0,0.344-0.315,0.629-0.631,0.629h-2.316c-0.315,0-0.631-0.285-0.631-0.629V41.204z"/>
<path fill="#393739" d="M33.36,41.204c0-0.373,0.314-0.629,0.629-0.629h2.318c0.315,0,0.63,0.256,0.63,0.629v11.955  c0,0.344-0.315,0.629-0.63,0.629h-2.318c-0.315,0-0.629-0.285-0.629-0.629V41.204z"/>
<path fill="#393739" d="M79.134,41.204c0-0.373,0.315-0.629,0.631-0.629h1.086c0.316,0,0.459,0.143,0.545,0.4l0.486,1.229  c0.486-0.541,1.717-1.916,4.264-1.916c4.207,0,5.295,2.832,5.295,6.035v6.836c0,0.344-0.314,0.629-0.63,0.629h-2.318  c-0.343,0-0.629-0.285-0.629-0.629v-6.836c0-1.715-0.687-2.773-2.29-2.773c-1.717,0-2.547,1.145-2.861,2.06v7.55  c0,0.485-0.201,0.629-0.83,0.629h-2.117c-0.315,0-0.631-0.285-0.631-0.629V41.204z"/>
<path fill="#393739" d="M100.531,40.288c3.434,0,6.066,2.547,6.066,6.121c0,0.201-0.029,0.659-0.058,0.859  c-0.028,0.342-0.343,0.599-0.63,0.599h-8.471c0.029,1.632,1.375,3.062,3.291,3.062c1.316,0,2.232-0.487,2.834-0.973  c0.314-0.258,0.658-0.285,0.859,0l1.114,1.486c0.229,0.258,0.259,0.574-0.056,0.859c-1.145,0.972-2.777,1.801-4.924,1.801  c-3.948,0-6.695-3.145-6.695-6.92C93.863,43.464,96.61,40.288,100.531,40.288 M102.991,45.523c-0.056-1.287-1.086-2.288-2.546-2.288  c-1.604,0-2.633,0.973-2.805,2.288H102.991z"/>
<path fill="#393739" d="M9.99,33.481c2.795,0,4.815,0.915,6.697,2.657c0.249,0.229,0.249,0.571,0.028,0.801l-1.688,1.8  c-0.194,0.229-0.471,0.229-0.692,0c-1.163-1.057-2.712-1.686-4.262-1.686c-3.542,0-6.171,3.057-6.171,6.658  c0,3.571,2.657,6.601,6.199,6.601c1.66,0,3.071-0.657,4.234-1.629c0.221-0.2,0.526-0.171,0.692,0l1.715,1.829  c0.222,0.199,0.167,0.572-0.027,0.771c-1.882,1.885-4.262,2.772-6.725,2.772C4.455,54.057,0,49.513,0,43.798  S4.455,33.481,9.99,33.481"/>
<path fill="#ED2E38" d="M32.845,36.028c0-1.26,0.973-2.26,2.261-2.26c1.287,0,2.289,1,2.289,2.26c0,1.259-1.002,2.287-2.289,2.287  C33.818,38.315,32.845,37.287,32.845,36.028"/>
</svg>