<?xml version="1.0" encoding="UTF-8"?>
<!-- Generator: Adobe Illustrator 16.0.0, SVG Export Plug-In . SVG Version: 6.00 Build 0)  -->
<!DOCTYPE svg PUBLIC "-//W3C//DTD SVG 1.1//EN" "http://www.w3.org/Graphics/SVG/1.1/DTD/svg11.dtd">
<svg version="1.1" id="Layer_1" xmlns="http://www.w3.org/2000/svg" xmlns:xlink="http://www.w3.org/1999/xlink" x="0px" y="0px" width="13px" height="14px" viewBox="0 0 13 14" enable-background="new 0 0 13 14" xml:space="preserve">
<g>
	<defs>
		<rect id="SVGID_1_" x="0" y="0" width="13" height="14"/>
	</defs>
	<clipPath id="SVGID_2_">
		<use xlink:href="#SVGID_1_" overflow="visible"/>
	</clipPath>
	<path clip-path="url(#SVGID_2_)" fill="#44489E" d="M6.436,7.27c0.001,0,0.002-0.001,0.002-0.002   c0.126-0.104,0.245-0.216,0.358-0.334C6.798,6.932,6.8,6.93,6.802,6.928c0.074-0.079,0.146-0.161,0.216-0.246l5.723,5.024   c0.309,0.272,0.349,0.737,0.085,0.997l-1.15,1.136c-0.264,0.26-0.714,0.198-0.964-0.132L6.038,7.561   C6.175,7.472,6.308,7.375,6.436,7.27"/>
	<path clip-path="url(#SVGID_2_)" fill="#44489E" d="M0,3.999c0,2.205,1.743,3.999,3.886,3.999c2.142,0,3.885-1.793,3.885-3.999   S6.028,0,3.886,0C1.743,0,0,1.794,0,3.999 M0.657,3.83c0-1.77,1.399-3.21,3.119-3.21c1.72,0,3.119,1.44,3.119,3.21   s-1.399,3.21-3.119,3.21C2.056,7.041,0.657,5.6,0.657,3.83"/>
</g>
</svg>